# xmcd CD database file
#
# Track frame offsets:
#	150
#	7385
#	23375
#	38030
#	53115
#	67700
#	84915
#	98175
#	113110
#	127982
#	141980
#	147230
#	164065
#	179775
#
# Disc length: 2602 seconds
#
# Revision: 0
# Processed by: cddbd v1.4PL0 Copyright (c) Steve Scherf et al.
# Submitted via: Feurio! 1.65 - http://www.feurio.com
#
DISCID=bd0a280e
DTITLE=Truck Stop - Meisterstücke II
DYEAR=1900
DGENRE=Country
TTITLE0=Der Wilde, Wilde Westen -1993
TTITLE1=Der Roadie Von Der Country Band -1981
TTITLE2=Keiner Meiner Freunde Hat Mehr Zeit -1983
TTITLE3=Mein Opa, Das Bin Ich -1983
TTITLE4=Wer Hat Mir Den Truck Geknackt -1983
TTITLE5=Du Und Ich -1983
TTITLE6=Alles Klar -1984
TTITLE7=Easy Rider -1981
TTITLE8=Country New Wave -1983
TTITLE9=Das Gibt's Doch Nur In Dallas -1983
TTITLE10=Ich Und Mein Diesel -1993
TTITLE11=Vater Und Sohn -1983
TTITLE12=Ab Heut' Wird Alles Anders -1983
TTITLE13=Ich Steh' Auf Jeans Und Country Music -1983
EXTD=
EXTT0=
EXTT1=
EXTT2=
EXTT3=
EXTT4=
EXTT5=
EXTT6=
EXTT7=
EXTT8=
EXTT9=
EXTT10=
EXTT11=
EXTT12=
EXTT13=
PLAYORDER=
